<svg xmlns="http://www.w3.org/2000/svg" xmlns:xlink="http://www.w3.org/1999/xlink" width="261" height="46"><defs><path id="a" d="M.979.548h46.216V46H.979z"/><path id="c" d="M.575.548h39.744V46H.575z"/><path id="e" d="M.949.036h28.633v44.476H.949z"/></defs><g fill="none" fill-rule="evenodd"><path fill="#2CA577" d="M28.939 28.694c-.572 1.77-1.39 3.27-2.459 4.502a10.647 10.647 0 0 1-3.922 2.839c-1.546.662-3.308.992-5.282.992h-5.332c-.865 0-1.566-.7-1.566-1.564V9.989c0-.864.701-1.565 1.566-1.565h5.332c1.974 0 3.736.332 5.282.993a10.68 10.68 0 0 1 3.922 2.839c1.07 1.23 1.887 2.732 2.459 4.502.569 1.77.854 3.755.854 5.953 0 2.218-.285 4.212-.854 5.983m5.066-21.887c-2.015-1.974-4.442-3.52-7.28-4.64-2.84-1.12-5.989-1.68-9.449-1.68H4.694A4.694 4.694 0 0 0 0 5.183V40.27a4.694 4.694 0 0 0 4.694 4.694h12.582c3.46 0 6.61-.554 9.45-1.664 2.838-1.108 5.265-2.655 7.279-4.64 2.014-1.984 3.576-4.335 4.685-7.051 1.11-2.717 1.665-5.683 1.665-8.898 0-3.195-.555-6.151-1.664-8.868-1.11-2.717-2.672-5.062-4.687-7.036"/><g transform="translate(42 -.548)"><mask id="b" fill="#fff"><use xlink:href="#a"/></mask><path fill="#2CA577" d="M9.062 22.978c2.279-1.986 6.08-.468 5.531 2.791-.304 1.806-2.325 3.121-4.1 2.667-2.389-.609-3.313-3.816-1.431-5.458m26.882-8.857c-.304 1.807-2.324 3.122-4.1 2.668-2.388-.61-3.314-3.817-1.431-5.458 2.279-1.987 6.08-.469 5.531 2.79M25.191 9.35c1.171.805 1.763 2.368 1.42 3.747-.344 1.38-1.6 2.481-3.012 2.643-3.332.382-4.842-3.658-2.802-6.003 1.061-1.219 3.111-1.27 4.394-.387m-12.528 4.825c1.061-1.219 3.11-1.27 4.394-.388 1.171.805 1.763 2.368 1.42 3.747-.344 1.38-1.6 2.482-3.012 2.643-3.333.382-4.842-3.657-2.802-6.002m24.203 13.72c-.47 1.833-2.113 3.112-3.925 2.766a6.487 6.487 0 0 1-2.218-.89c-.682-.447-1.379-.916-2.238-.827-.368.04-.72.181-1.036.372-1.011.612-1.564 1.581-1.536 2.732.022.957.081 2.023-.542 2.82-.425.546-1.048.864-1.707 1.032-3.452.877-5.943-1.47-7.077-4.51a10.84 10.84 0 0 1-.667-4.329c.451-7.81 8.162-11.836 15.008-8.74 1.76.797 3.457 2.054 4.634 3.783 1.178 1.728 1.772 3.958 1.304 5.791m3.979-20.783c-2.014-2.035-4.442-3.638-7.28-4.808S27.577.548 24.117.548c-3.459 0-6.614.58-9.463 1.74-2.849 1.16-5.286 2.757-7.31 4.792-2.026 2.035-3.593 4.437-4.701 7.204-1.11 2.768-1.664 5.76-1.664 8.974 0 3.216.554 6.208 1.664 8.975 1.108 2.768 2.675 5.174 4.701 7.22 2.024 2.045 4.461 3.648 7.31 4.807 2.849 1.16 6.004 1.74 9.463 1.74 3.46 0 6.61-.58 9.448-1.74 2.838-1.159 5.266-2.762 7.28-4.807 2.015-2.046 3.576-4.452 4.686-7.22 1.109-2.767 1.664-5.759 1.664-8.975 0-3.194-.555-6.176-1.664-8.944-1.11-2.767-2.671-5.168-4.686-7.203" mask="url(#b)"/></g><g transform="translate(91 -.548)"><mask id="d" fill="#fff"><use xlink:href="#c"/></mask><path fill="#2CA577" d="M36.423 22.465h-8.02a3.896 3.896 0 0 0-3.896 3.896v1.781c0 .53.183.968.55 1.313.366.346.874.52 1.526.52h4.396v6.745c-.977.408-2.015.733-3.114.976-1.1.245-2.361.367-3.785.367-1.873 0-3.597-.33-5.174-.992a11.447 11.447 0 0 1-4.09-2.885c-1.151-1.262-2.051-2.807-2.702-4.639-.651-1.832-.977-3.928-.977-6.289 0-2.136.295-4.075.885-5.815.59-1.74 1.43-3.23 2.518-4.472a11.193 11.193 0 0 1 3.953-2.884c1.547-.683 3.287-1.023 5.22-1.023 1.038 0 1.974.051 2.809.152.835.102 1.627.265 2.38.49.753.223 1.49.513 2.214.87.722.355 1.49.778 2.305 1.265.65.408 1.282.611 1.892.611.468 0 .9-.122 1.297-.366a3.316 3.316 0 0 0 1.023-1.008l1.023-1.556c1.166-1.772.732-4.2-1.05-5.35l-.034-.023a20.753 20.753 0 0 0-3.77-1.892A25.696 25.696 0 0 0 29.3 1.005C27.67.7 25.93.548 24.08.548c-3.582 0-6.823.56-9.723 1.678-2.9 1.12-5.372 2.686-7.417 4.701-2.046 2.015-3.618 4.411-4.716 7.19-1.1 2.777-1.65 5.825-1.65 9.141 0 3.257.576 6.273 1.726 9.051 1.149 2.778 2.736 5.18 4.762 7.204 2.024 2.026 4.42 3.612 7.188 4.762C17.018 45.425 20.03 46 23.286 46c1.81 0 3.505-.092 5.083-.275a29.274 29.274 0 0 0 4.456-.855 22.94 22.94 0 0 0 3.938-1.48 22.566 22.566 0 0 0 1.68-.909 3.889 3.889 0 0 0 1.876-3.343V26.361a3.896 3.896 0 0 0-3.896-3.896" mask="url(#d)"/></g><path fill="#2CA577" d="M169.41 36.722h-12.37V4.603a4.115 4.115 0 0 0-4.114-4.115h-2.087a4.115 4.115 0 0 0-4.115 4.115v36.246a4.115 4.115 0 0 0 4.115 4.115h18.57a4.115 4.115 0 0 0 4.116-4.115v-.012a4.115 4.115 0 0 0-4.115-4.115M184.513.488a5.189 5.189 0 0 0-5.19 5.19v34.096a5.19 5.19 0 1 0 10.379 0V5.677a5.189 5.189 0 0 0-5.19-5.189m38.096 0h-20.696a3.967 3.967 0 0 0-3.968 3.968v36.54a3.968 3.968 0 0 0 3.968 3.968h2.442a3.968 3.968 0 0 0 3.968-3.969v-13.34h11.233a3.968 3.968 0 0 0 3.97-3.968v-.03a3.968 3.968 0 0 0-3.97-3.968h-11.233V8.424h14.286a3.968 3.968 0 1 0 0-7.936"/><g transform="translate(231 .452)"><mask id="f" fill="#fff"><use xlink:href="#e"/></mask><path fill="#2CA577" d="M25.766 7.972a3.815 3.815 0 0 0 3.816-3.815v-.305A3.815 3.815 0 0 0 25.766.036h-21A3.816 3.816 0 0 0 .948 3.852v36.844a3.817 3.817 0 0 0 3.816 3.816h21.001a3.816 3.816 0 0 0 3.816-3.816v-.305a3.816 3.816 0 0 0-3.816-3.816H11.328V25.983h10.166a3.817 3.817 0 0 0 0-7.632H11.328V7.972h14.438z" mask="url(#f)"/></g></g></svg>